<svg width="48" height="37" viewBox="0 0 48 37" fill="none" xmlns="http://www.w3.org/2000/svg">
<path d="M37.1875 31.2502C36.0793 31.898 34.9314 32.4544 33.7317 32.9278C34.3572 34.1022 35.0568 35.2285 35.8185 36.3055C39.5752 35.1195 43.3817 33.3513 47.3102 30.4877C48.255 20.3552 45.6327 11.5494 40.3331 3.72334C37.4115 2.39193 34.2868 1.40157 31.0231 0.81652C30.6447 1.51381 30.2412 2.36562 29.9503 3.04969L29.7988 3.40578L29.4162 3.34849C25.7753 2.80342 22.1553 2.80365 18.5922 3.34826L18.2054 3.40738L18.055 3.04611C17.7672 2.35454 17.351 1.51587 16.9658 0.816231C13.7023 1.39974 10.5761 2.39072 7.65142 3.72484C1.57597 12.8386 -0.108368 21.7143 0.682217 30.4883C4.61106 33.352 8.41798 35.1203 12.1577 36.3062M37.1875 31.2502C37.1875 31.2502 37.1874 31.2503 37.1873 31.2503L36.9352 30.8185L37.1875 31.2502ZM37.1875 31.2502C37.599 31.0097 37.6144 30.4357 37.247 30.1622L37.2468 30.162C37.0006 29.9789 36.7555 29.786 36.521 29.5927L36.521 29.5926L36.5147 29.5876C36.3271 29.4381 36.0642 29.3977 35.8335 29.5068M35.8335 29.5068C28.2052 33.0303 19.8542 33.0309 12.1307 29.5046L12.1272 29.503C11.9055 29.4039 11.6412 29.4354 11.4481 29.5961L11.7679 29.9804L11.4499 29.5946C11.2168 29.7868 10.9716 29.978 10.7251 30.1626M35.8335 29.5068C35.8316 29.5077 35.8298 29.5086 35.828 29.5094L36.0459 29.9595L35.8362 29.5056C35.8353 29.506 35.8344 29.5064 35.8335 29.5068ZM10.7251 30.1626C10.3489 30.4433 10.386 31.0159 10.7873 31.2503L10.7907 31.2523C11.8961 31.8861 13.0439 32.4526 14.2453 32.9304M10.7251 30.1626C10.7249 30.1628 10.7247 30.163 10.7245 30.1631L11.0243 30.5632L10.7258 30.1622C10.7256 30.1623 10.7253 30.1625 10.7251 30.1626ZM14.2453 32.9304C13.6312 34.1049 12.9318 35.2302 12.1577 36.3062M14.2453 32.9304C14.3045 32.8172 14.363 32.7035 14.4206 32.5893L14.6059 33.0705L14.7297 32.7453L14.7298 32.7448L14.7837 32.6032L14.73 32.7449L14.7298 32.7454L14.6064 33.0707C14.4855 33.0248 14.3651 32.9781 14.2453 32.9304ZM12.1577 36.3062C12.2368 36.3313 12.3159 36.3562 12.395 36.3807L12.293 36.7088L12.2466 36.8582L12.2911 36.7123L12.0116 36.5076C12.0606 36.4407 12.1093 36.3736 12.1577 36.3062ZM33.189 32.6013C33.1039 32.6337 33.0661 32.7327 33.1077 32.8146L33.189 32.6013ZM33.189 32.6013L33.2435 32.7445L33.189 32.6013ZM0.696518 30.6441L0.696195 30.6406L0.696518 30.6441ZM12.2918 36.7128L12.415 36.803L12.2918 36.7128ZM12.3925 36.38L12.2923 36.7082L12.0193 36.4973C12.1002 36.3926 12.2462 36.3353 12.3925 36.38ZM35.9655 36.5117L35.9638 36.5093C35.9644 36.5101 35.965 36.5109 35.9655 36.5117ZM11.2263 20.3961C11.2263 23.2844 13.3474 25.734 16.04 25.734C18.772 25.734 20.8521 23.2834 20.8538 20.3996C20.8931 17.5253 18.7875 15.0582 16.04 15.0582C13.3069 15.0582 11.2263 17.5108 11.2263 20.3961ZM27.1758 20.3961C27.1758 23.2844 29.2969 25.734 31.9895 25.734C34.7417 25.734 36.8015 23.282 36.8033 20.3998C36.8426 17.5254 34.7371 15.0582 31.9895 15.0582C29.2564 15.0582 27.1758 17.5108 27.1758 20.3961Z" fill="#0040E0" stroke="#0040E0"/>
</svg>
