<svg width="1080" height="1080" fill="none" xmlns="http://www.w3.org/2000/svg"><g clip-path="url(#a)"><path d="M0 0h1080v1080H0V0Z" fill="#fff"/><mask id="b" style="mask-type:luminance" maskUnits="userSpaceOnUse" x="119" y="137" width="843" height="807"><path d="M119 137h842.58v806.85H119V137Z" fill="#fff"/></mask><g mask="url(#b)"><path d="M120.5 942.36V210.83a72.326 72.326 0 0 1 44.642-66.824 72.321 72.321 0 0 1 27.678-5.506h767.26" fill="#fff"/><path d="M120.5 942.36V210.83a72.326 72.326 0 0 1 44.642-66.824 72.321 72.321 0 0 1 27.678-5.506h767.26" stroke="#191C1E" stroke-width="3" stroke-linecap="round" stroke-linejoin="round"/><path d="M960.08 256.93h-110a23.43 23.43 0 0 1-23.43-23.43v-71.56a23.433 23.433 0 0 0-23.43-23.44H536.29a23.427 23.427 0 0 0-16.571 6.866 23.43 23.43 0 0 0-6.859 16.574v71.56a23.433 23.433 0 0 1-23.43 23.43H120.5v137.62h839.58" fill="#fff"/><path d="M960.08 256.93h-110a23.43 23.43 0 0 1-23.43-23.43v-71.56a23.433 23.433 0 0 0-23.43-23.44H536.29a23.427 23.427 0 0 0-16.571 6.866 23.43 23.43 0 0 0-6.859 16.574v71.56a23.433 23.433 0 0 1-23.43 23.43H120.5v137.62h839.58" stroke="#191C1E" stroke-width="3" stroke-linecap="round" stroke-linejoin="round"/><path d="M210.81 223.85c10.416 0 18.86-8.444 18.86-18.86 0-10.416-8.444-18.86-18.86-18.86-10.416 0-18.86 8.444-18.86 18.86 0 10.416 8.444 18.86 18.86 18.86Z" fill="#FF8669" stroke="#191C1E" stroke-width="3" stroke-linecap="round" stroke-linejoin="round"/><path d="M274.32 223.85c10.416 0 18.86-8.444 18.86-18.86 0-10.416-8.444-18.86-18.86-18.86-10.416 0-18.86 8.444-18.86 18.86 0 10.416 8.444 18.86 18.86 18.86Z" fill="#FFB929" stroke="#191C1E" stroke-width="3" stroke-linecap="round" stroke-linejoin="round"/><path d="M337.84 223.85c10.416 0 18.86-8.444 18.86-18.86 0-10.416-8.444-18.86-18.86-18.86-10.416 0-18.86 8.444-18.86 18.86 0 10.416 8.444 18.86 18.86 18.86Z" fill="#6DD58C" stroke="#191C1E" stroke-width="3" stroke-linecap="round" stroke-linejoin="round"/><path d="M670.77 475.25c82.578 0 149.52-66.942 149.52-149.52 0-82.578-66.942-149.52-149.52-149.52-82.578 0-149.52 66.942-149.52 149.52 0 82.578 66.942 149.52 149.52 149.52Z" fill="#fff" stroke="#191C1E" stroke-width="3" stroke-linecap="round" stroke-linejoin="round"/><path d="M460.21 353.89a38.365 38.365 0 0 1-59.61-9.508 38.372 38.372 0 0 1 4.181-43.353 38.372 38.372 0 0 1 60.329 2.061" fill="#fff"/><path d="M460.21 353.89a38.365 38.365 0 0 1-59.61-9.508 38.372 38.372 0 0 1 4.181-43.353 38.372 38.372 0 0 1 60.329 2.061" stroke="#191C1E" stroke-width="3" stroke-linecap="round" stroke-linejoin="round"/><path d="m470.57 298.9 2.52 16.75-15.95-5.72 13.43-11.03Z" fill="#191C1E" stroke="#191C1E" stroke-width="3" stroke-linecap="round" stroke-linejoin="round"/><path d="M236.18 329.44h-63.69m0 0 29.13 29.13m-29.13-29.13 29.13-29.12m72.7 29.12h63.69m0 0-29.13 29.13m29.13-29.13-29.13-29.12" stroke="#191C1E" stroke-width="3" stroke-linecap="round" stroke-linejoin="round"/><path d="M679.55 562.59H514.16c-10.598 0-19.19 8.589-19.19 19.185 0 10.596 8.592 19.185 19.19 19.185h165.39c10.598 0 19.19-8.589 19.19-19.185 0-10.596-8.592-19.185-19.19-19.185Zm0 245.6H514.16c-10.598 0-19.19 8.589-19.19 19.185 0 10.596 8.592 19.185 19.19 19.185h165.39c10.598 0 19.19-8.589 19.19-19.185 0-10.596-8.592-19.185-19.19-19.185Z" fill="#C2E7FF" stroke="#C2E7FF" stroke-width="3" stroke-linecap="round" stroke-linejoin="round"/><path d="M294.11 741.88c0-19.507-15.813-35.32-35.32-35.32-19.507 0-35.32 15.813-35.32 35.32v83.58c0 19.507 15.813 35.32 35.32 35.32 19.507 0 35.32-15.813 35.32-35.32v-83.58Z" fill="#FF8669" stroke="#191C1E" stroke-width="3" stroke-linecap="round" stroke-linejoin="round"/><path d="M313.51 826.95a54.713 54.713 0 0 1-16.027 38.693 54.724 54.724 0 0 1-38.693 16.027m0 0a54.716 54.716 0 0 1-50.555-33.78 54.713 54.713 0 0 1-4.165-20.94m54.72 54.72v31.84m-35.32 0h70.64" stroke="#191C1E" stroke-width="3" stroke-linecap="round" stroke-linejoin="round"/><path d="m370.59 520.1-42.9 34.55v-33.56a16.694 16.694 0 0 0-4.914-11.803 16.682 16.682 0 0 0-11.826-4.857H199.06a16.7 16.7 0 0 0-15.484 10.263 16.668 16.668 0 0 0-1.286 6.397v121.34a16.693 16.693 0 0 0 16.75 16.62h111.91a16.685 16.685 0 0 0 16.74-16.62v-28.85l43.34 31.66a11.92 11.92 0 0 0 17.204-3.298 11.922 11.922 0 0 0 1.796-6.222V529.28a11.925 11.925 0 0 0-13.356-11.765 11.914 11.914 0 0 0-6.084 2.585Z" fill="#FF8669" stroke="#191C1E" stroke-width="3" stroke-linecap="round" stroke-linejoin="round"/><path d="M590.9 274.8h369.18V376H590.9a50.615 50.615 0 0 1-50.61-50.61 50.615 50.615 0 0 1 50.61-50.59Z" fill="#C2E7FF" stroke="#C2E7FF" stroke-width="3" stroke-linecap="round" stroke-linejoin="round"/><path d="M625.31 322.08h-27.15a7.88 7.88 0 0 0-7.88 7.88v17.19a7.88 7.88 0 0 0 7.88 7.88h27.15a7.88 7.88 0 0 0 7.88-7.88v-17.19a7.88 7.88 0 0 0-7.88-7.88Z" fill="#fff" stroke="#191C1E" stroke-width="3" stroke-linecap="round" stroke-linejoin="round"/><path d="M595.13 322.09v-12.86a16.765 16.765 0 0 1 16.76-16.8 16.76 16.76 0 0 1 16.76 16.76v12.86" fill="#fff"/><path d="M595.13 322.09v-12.86a16.765 16.765 0 0 1 16.76-16.8 16.76 16.76 0 0 1 16.76 16.76v12.86" stroke="#191C1E" stroke-width="3" stroke-linecap="round" stroke-linejoin="round"/><path d="M670.77 475.25c82.578 0 149.52-66.942 149.52-149.52 0-82.578-66.942-149.52-149.52-149.52-82.578 0-149.52 66.942-149.52 149.52 0 82.578 66.942 149.52 149.52 149.52Z" fill="#fff" stroke="#191C1E" stroke-width="3" stroke-linecap="round" stroke-linejoin="round"/><path d="M521.29 325.74a149.006 149.006 0 0 0 39.1 100.87h220.75a149.51 149.51 0 0 0 1.15-200.47h-223a149 149 0 0 0-38 99.6Z" fill="#fff" stroke="#191C1E" stroke-width="3" stroke-linecap="round" stroke-linejoin="round"/><path d="M562.74 326.15a79.61 79.61 0 0 0 23.314 56.286 79.61 79.61 0 0 0 56.286 23.314h154.75a149.583 149.583 0 0 0 .52-159.2H642.34a79.6 79.6 0 0 0-79.6 79.6Z" fill="#C2E7FF" stroke="#C2E7FF" stroke-width="3" stroke-linecap="round" stroke-linejoin="round"/><path d="M670.77 475.25c82.578 0 149.52-66.942 149.52-149.52 0-82.578-66.942-149.52-149.52-149.52-82.578 0-149.52 66.942-149.52 149.52 0 82.578 66.942 149.52 149.52 149.52Z" stroke="#191C1E" stroke-width="3" stroke-linecap="round" stroke-linejoin="round"/><path d="m944.76 547.178-194.54-167.24a7.997 7.997 0 0 0-8.558-1.208 8.004 8.004 0 0 0-4.662 7.278v266a9.51 9.51 0 0 0 17.17 5.65l59.92-81.16 50.64 99.84a17.996 17.996 0 0 0 10.476 8.993 17.998 17.998 0 0 0 13.764-1.073 18.027 18.027 0 0 0 5.544-4.339 18.021 18.021 0 0 0 4.293-13.124 17.985 17.985 0 0 0-1.907-6.777l-48.75-96.1h90.4a9.513 9.513 0 0 0 8.931-6.209 9.515 9.515 0 0 0-2.721-10.531Z" fill="#fff" stroke="#191C1E" stroke-width="3" stroke-linecap="round" stroke-linejoin="round"/><path d="M514.8 625.12c23.936 0 43.34-19.404 43.34-43.34 0-23.936-19.404-43.34-43.34-43.34-23.936 0-43.34 19.404-43.34 43.34 0 23.936 19.404 43.34 43.34 43.34Zm0 245.6c23.936 0 43.34-19.404 43.34-43.34 0-23.936-19.404-43.34-43.34-43.34-23.936 0-43.34 19.404-43.34 43.34 0 23.936 19.404 43.34 43.34 43.34Z" fill="#FFDDDB" stroke="#191C1E" stroke-width="3" stroke-linecap="round" stroke-linejoin="round"/></g><path d="M706.306 373c-4.887 0-9.058-1.679-12.513-5.037-3.455-3.358-5.182-7.413-5.182-12.163s1.727-8.805 5.182-12.163c3.455-3.358 7.626-5.037 12.513-5.037s9.057 1.679 12.512 5.037c3.455 3.358 5.182 7.413 5.182 12.163s-1.727 8.805-5.182 12.163c-3.455 3.358-7.625 5.037-12.512 5.037Zm-.03-7.371c2.8 0 5.19-.953 7.171-2.859 1.98-1.905 2.97-4.219 2.97-6.941 0-2.722-.98-5.046-2.941-6.97-1.96-1.925-4.34-2.888-7.141-2.888-2.8 0-5.19.953-7.17 2.859-1.981 1.905-2.971 4.219-2.971 6.941 0 2.722.981 5.046 2.941 6.97 1.96 1.925 4.34 2.888 7.141 2.888ZM633 359.486v-7.372h45.5v7.372H633Zm17.694-38.086c-4.887 0-9.057-1.679-12.512-5.037-3.455-3.358-5.182-7.413-5.182-12.163s1.727-8.805 5.182-12.163c3.455-3.358 7.625-5.037 12.512-5.037 4.887 0 9.058 1.679 12.513 5.037 3.455 3.358 5.182 7.413 5.182 12.163s-1.727 8.805-5.182 12.163c-3.455 3.358-7.626 5.037-12.513 5.037Zm-.029-7.371c2.8 0 5.19-.953 7.17-2.859 1.981-1.905 2.971-4.219 2.971-6.941 0-2.722-.981-5.046-2.941-6.97-1.96-1.925-4.34-2.888-7.141-2.888-2.8 0-5.19.953-7.171 2.859-1.98 1.905-2.97 4.219-2.97 6.941 0 2.722.98 5.046 2.941 6.97 1.96 1.925 4.34 2.888 7.141 2.888Zm27.835-6.143v-7.372H724v7.372h-45.5Z" fill="#041E49"/></g><defs><clipPath id="a"><path fill="#fff" d="M0 0h1080v1080H0z"/></clipPath></defs></svg>